# xmcd
#
# Track frame offsets:
#	150
#	11977
#	23884
#	40169
#	54056
#	71387
#	80675
#	91349
#	104002
#	113688
#	124063
#	136821
#	150380
#	166580
#	178860
#	191503
#	203640
#	219453
#	231172
#	250893
#	263826
#	277204
#	289253
#	303442
#	318687
#
# Disc length: 4497 seconds
#
# Revision: 1
# Processed by: cddbd v1.5.2PL0 Copyright (c) Steve Scherf et al.
# Submitted via: audiograbber 1.83.01
#
DISCID=62118f19
DTITLE=Frank Sinatra - The First and the Best
DYEAR=2006
DGENRE=
TTITLE0=Sentimental Baby
TTITLE1=Besame Mucho
TTITLE2=Close to you
TTITLE3=I'll never be the same
TTITLE4=I've had my moments
TTITLE5=You'd be so nice to come home to
TTITLE6=Oh, what a beautiful morning
TTITLE7=People will say we're in love
TTITLE8=I'll get by
TTITLE9=Milkman, keep those bottles quiet
TTITLE10=You'll never know
TTITLE11=In the wee small hours of the morning
TTITLE12=This love is mine
TTITLE13=Love looked out
TTITLE14=Deep in a dream
TTITLE15=It never entered my mind
TTITLE16=Mood indigo
TTITLE17=Glad to be unhappy
TTITLE18=PS i love you
TTITLE19=As time goes by
TTITLE20=Blame it on my youth
TTITLE21=There's a flaw in my flue
TTITLE22=Wait till you see her
TTITLE23=I see your face before me
TTITLE24=The end of a love affair
EXTD=
EXTT0=
EXTT1=
EXTT2=
EXTT3=
EXTT4=
EXTT5=
EXTT6=
EXTT7=
EXTT8=
EXTT9=
EXTT10=
EXTT11=
EXTT12=
EXTT13=
EXTT14=
EXTT15=
EXTT16=
EXTT17=
EXTT18=
EXTT19=
EXTT20=
EXTT21=
EXTT22=
EXTT23=
EXTT24=
PLAYORDER=
